<?xml version="1.0" encoding="utf-8"?>
<!-- Generator: Adobe Illustrator 21.0.2, SVG Export Plug-In . SVG Version: 6.00 Build 0)  -->
<svg version="1.1" id="Layer_1" xmlns="http://www.w3.org/2000/svg" xmlns:xlink="http://www.w3.org/1999/xlink" x="0px" y="0px"
	 viewBox="0 0 1417.3 1133.9" style="enable-background:new 0 0 1417.3 1133.9;" xml:space="preserve">
<style type="text/css">
	.st0{fill:#FFFFFF;}
</style>
<g>
	<path class="st0" d="M251.2,304.2V741c0,42,0.8,86.4,46.7,88.8v7H125.1v-7c45.9-5.5,46.7-49.1,46.7-88.8V420.2
		c0-42.8-0.8-86.4-46.7-88.8v-7L251.2,304.2z"/>
	<path class="st0" d="M613.3,836.8c-15.6-20.2-25.7-44.4-26.5-70.1c-30.4,55.3-95,77.9-154.9,77.9c-70.9,0-123-33.5-123-91.1
		c0-122.3,181.4-150.3,271.7-172.1v-14.8c0-57.6-21-77.9-78.6-77.9c-74,0-134.7,36.6-165.8,105.9l12.5-127.7
		c14.8,11.7,23.4,13.2,49.8,3.9c49.1-17.1,81.8-25.7,134.7-25.7c98.9,0,131.6,33.5,131.6,130.8v146.4c0,46.7,0.8,96.6,55.3,107.4v7
		H613.3z M580.6,613.3c-61.5,13.2-183,49.8-183,130c0,36.6,29.6,57.6,63.1,57.6c99.7,0,119.9-91.9,119.9-155.7V613.3z"/>
	<path class="st0" d="M858.5,452.9V741c0,42,0.8,86.4,46.7,88.8v7H732.4v-7c45.9-3.9,46.7-48.3,46.7-88.8V558.8
		c0-40.5-0.8-84.1-46.7-88.8v-7L858.5,452.9z M765.9,347c0-31.9,19.5-57.6,52.9-57.6c29.6,0,52.2,26.5,52.2,55.3
		c0,28.8-20.2,58.4-51.4,58.4C788.5,403.1,765.9,378.1,765.9,347z"/>
	<path class="st0" d="M989.4,661.6c12.5,80.2,80.2,145.6,162,145.6c31.1,0,70.9-17.9,94.2-38.2c18.7-16.3,30.4-37.4,41.3-59.2l7,3.1
		l-40.5,128.5c-2.3-2.3-4.7-3.9-9.3-4.7c-3.9-0.8-8.6-0.8-16.3-0.8c-17.1,0-31.9,2.3-48.3,4.7c-16.3,2.3-34.3,4.7-60,4.7
		c-65.4,0-218.8-50.6-218.8-200.1c0-116,90.3-200.1,204.8-200.1c84.1,0,159.6,50.6,181.4,133.9L989.4,661.6z M1195.7,568.9
		c-14.8-43.6-47.5-86.4-97.3-86.4c-79.4,0-116,75.5-113.7,146.4L1195.7,568.9z"/>
</g>
</svg>
